<?xml version="1.0" standalone="no"?>
<!DOCTYPE svg PUBLIC "-//W3C//DTD SVG 20010904//EN"
 "http://www.w3.org/TR/2001/REC-SVG-20010904/DTD/svg10.dtd">
<svg version="1.0" xmlns="http://www.w3.org/2000/svg"
 width="400.000000pt" height="400.000000pt" viewBox="0 0 400.000000 400.000000"
 preserveAspectRatio="xMidYMid meet">
<metadata>
Created by potrace 1.11, written by Peter Selinger 2001-2013
</metadata>
<g transform="translate(0.000000,400.000000) scale(0.100000,-0.100000)"
fill="#000000" stroke="none">
<path d="M1592 3335 c-102 -23 -206 -80 -286 -157 -39 -38 -79 -71 -88 -74 -9
-2 -49 -21 -90 -40 -255 -124 -460 -335 -593 -609 -88 -182 -162 -449 -190
-680 -3 -27 -8 -61 -10 -75 -16 -94 -27 -488 -14 -512 10 -19 30 -25 204 -64
66 -14 157 -35 202 -45 73 -17 121 -18 173 -4 8 3 32 7 54 11 21 3 48 8 60 10
11 2 111 20 221 39 110 19 295 52 412 73 l212 38 16 -38 c20 -51 26 -125 14
-173 -6 -22 -11 -46 -11 -54 -4 -44 -237 -232 -354 -284 -39 -18 -41 -21 -37
-55 13 -117 72 -261 127 -309 40 -36 90 -43 136 -20 87 44 62 229 -46 340
l-35 35 47 33 c71 48 186 170 213 224 19 38 24 64 23 114 0 36 -3 73 -5 81 -2
8 -8 30 -12 48 -4 18 -12 35 -16 38 -26 16 -3 31 64 42 39 7 122 21 182 32 61
11 121 22 135 24 14 3 79 14 145 27 66 12 129 23 140 25 11 1 60 10 109 19 49
9 96 13 103 11 8 -3 28 -36 46 -73 40 -86 43 -184 8 -257 -24 -49 -106 -129
-188 -184 -29 -19 -53 -38 -53 -42 0 -4 -6 -7 -12 -7 -7 -1 -40 -16 -73 -34
-58 -32 -61 -36 -58 -69 5 -54 41 -176 67 -228 37 -72 76 -104 134 -110 41 -4
53 0 78 21 28 24 29 29 29 109 0 72 -4 89 -28 134 -16 28 -44 67 -63 87 l-35
35 46 32 c72 49 190 174 216 227 42 87 27 223 -38 325 -20 33 -32 71 -18 56 4
-3 23 -2 43 3 20 4 53 11 72 14 48 8 479 84 510 91 14 2 43 7 65 10 59 9 68
20 61 75 -3 26 -8 53 -10 61 -3 7 -7 31 -10 53 -48 349 -178 726 -330 960 -65
100 -164 217 -177 209 -5 -3 -8 -1 -7 4 4 14 -56 66 -152 129 -47 31 -107 81
-135 111 -46 50 -113 102 -139 106 -6 1 -17 5 -24 10 -29 18 -146 9 -221 -17
l-75 -26 -42 34 c-23 19 -47 35 -53 35 -6 0 -11 4 -11 9 0 5 -32 19 -70 31
-59 19 -81 21 -133 15 -34 -4 -73 -8 -87 -7 -14 0 -81 3 -150 6 -90 4 -143 2
-188 -9z"/>
</g>
</svg>
